<?xml version="1.0" encoding="UTF-8" standalone="no"?>
<svg
   xmlns:dc="http://purl.org/dc/elements/1.1/"
   xmlns:cc="http://creativecommons.org/ns#"
   xmlns:rdf="http://www.w3.org/1999/02/22-rdf-syntax-ns#"
   xmlns:svg="http://www.w3.org/2000/svg"
   xmlns="http://www.w3.org/2000/svg"
   xmlns:sodipodi="http://sodipodi.sourceforge.net/DTD/sodipodi-0.dtd"
   xmlns:inkscape="http://www.inkscape.org/namespaces/inkscape"
   width="172.83371mm"
   height="126.44815mm"
   viewBox="0 0 172.83371 126.44815"
   version="1.1"
   id="svg1566"
   inkscape:version="1.0.1 (1.0.1+r75)"
   sodipodi:docname="choir.svg">
  <defs
     id="defs1560" />
  <sodipodi:namedview
     id="base"
     pagecolor="#ffffff"
     bordercolor="#666666"
     borderopacity="1.0"
     inkscape:pageopacity="0.0"
     inkscape:pageshadow="2"
     inkscape:zoom="0.7"
     inkscape:cx="-102.08093"
     inkscape:cy="238.37774"
     inkscape:document-units="mm"
     inkscape:current-layer="layer1"
     inkscape:document-rotation="0"
     showgrid="false"
     fit-margin-top="0"
     fit-margin-left="0"
     fit-margin-right="0"
     fit-margin-bottom="0"
     inkscape:window-width="1680"
     inkscape:window-height="1022"
     inkscape:window-x="0"
     inkscape:window-y="0"
     inkscape:window-maximized="1" />
  <metadata
     id="metadata1563">
    <rdf:RDF>
      <cc:Work
         rdf:about="">
        <dc:format>image/svg+xml</dc:format>
        <dc:type
           rdf:resource="http://purl.org/dc/dcmitype/StillImage" />
        <dc:title></dc:title>
      </cc:Work>
    </rdf:RDF>
  </metadata>
  <g
     inkscape:label="Layer 1"
     inkscape:groupmode="layer"
     id="layer1"
     transform="translate(-60.303,-65.392229)">
    <path
       style="fill:none;stroke:#006d9c;stroke-width:1.965;stroke-linecap:butt;stroke-linejoin:miter;stroke-miterlimit:4;stroke-dasharray:none;stroke-opacity:1"
       d="m 188.06007,147.37537 -4.16284,11.94867"
       id="path1712" />
    <path
       style="fill:none;stroke:#006d9c;stroke-width:1.93094;stroke-linecap:butt;stroke-linejoin:miter;stroke-miterlimit:4;stroke-dasharray:none;stroke-opacity:1"
       d="m 178.7764,138.22598 11.47543,45.12615"
       id="path1710" />
    <path
       style="fill:none;stroke:#006d9c;stroke-width:1.965;stroke-linecap:butt;stroke-linejoin:miter;stroke-miterlimit:4;stroke-dasharray:none;stroke-opacity:1"
       d="m 150.96063,138.58481 c -0.75595,3.06604 -11.06535,27.08019 -11.06535,27.08019"
       id="path1708" />
    <path
       style="fill:none;stroke:#006d9c;stroke-width:1.90097;stroke-linecap:butt;stroke-linejoin:miter;stroke-miterlimit:4;stroke-dasharray:none;stroke-opacity:1"
       d="m 135.36195,153.80148 11.50694,32.8684"
       id="path1706" />
    <path
       style="fill:none;stroke:#006d9c;stroke-width:1.965;stroke-linecap:butt;stroke-linejoin:miter;stroke-miterlimit:4;stroke-dasharray:none;stroke-opacity:1"
       d="m 109.47727,152.90899 -1.21168,7.37469"
       id="path1704" />
    <path
       style="fill:none;stroke:#006d9c;stroke-width:1.93149;stroke-linecap:butt;stroke-linejoin:miter;stroke-miterlimit:4;stroke-dasharray:none;stroke-opacity:1"
       d="m 100.83612,138.2572 17.08393,51.06838"
       id="path1702" />
    <ellipse
       style="opacity:1;fill:#00ffff;fill-opacity:1;stroke:#04bcbe;stroke-width:3.2;stroke-miterlimit:4;stroke-dasharray:none;stroke-opacity:1"
       id="path1574"
       cx="76.828461"
       cy="113.00552"
       rx="24.970074"
       ry="37.894882"
       transform="rotate(-5.3433422)" />
    <ellipse
       style="opacity:1;fill:#00ffff;fill-opacity:1;stroke:#04bcbe;stroke-width:3.2;stroke-miterlimit:4;stroke-dasharray:none;stroke-opacity:1"
       id="path1576"
       cx="164.47154"
       cy="105.18035"
       rx="25.061825"
       ry="38.188122" />
    <ellipse
       style="opacity:1;fill:#00ffff;fill-opacity:1;stroke:#04bcbe;stroke-width:3.2;stroke-miterlimit:4;stroke-dasharray:none;stroke-opacity:1"
       id="path1578"
       cx="217.39545"
       cy="95.508743"
       rx="25.356865"
       ry="38.221828"
       transform="rotate(6.1111215)" />
    <ellipse
       style="opacity:1;fill:#00ffff;fill-opacity:1;stroke:#04bcbe;stroke-width:3.2;stroke-miterlimit:4;stroke-dasharray:none;stroke-opacity:1"
       id="path1580"
       cx="123.1546"
       cy="118.11292"
       rx="26.134548"
       ry="39.518513" />
    <ellipse
       style="opacity:1;fill:#00ffff;fill-opacity:1;stroke:#04bcbe;stroke-width:3.2;stroke-miterlimit:4;stroke-dasharray:none;stroke-opacity:1"
       id="path1582"
       cx="76.739456"
       cy="97.502678"
       rx="1.4008927"
       ry="2.8519738" />
    <ellipse
       style="opacity:1;fill:#00ffff;fill-opacity:1;stroke:#04bcbe;stroke-width:3.2;stroke-miterlimit:4;stroke-dasharray:none;stroke-opacity:1"
       id="path1582-5"
       cx="89.202377"
       cy="96.005951"
       rx="1.4008927"
       ry="2.8519738" />
    <ellipse
       style="opacity:1;fill:#00ffff;fill-opacity:1;stroke:#04bcbe;stroke-width:3.2;stroke-miterlimit:4;stroke-dasharray:none;stroke-opacity:1"
       id="path1582-3"
       cx="113.39286"
       cy="105.45536"
       rx="1.4008927"
       ry="2.8519738" />
    <ellipse
       style="opacity:1;fill:#00ffff;fill-opacity:1;stroke:#04bcbe;stroke-width:3.2;stroke-miterlimit:4;stroke-dasharray:none;stroke-opacity:1"
       id="path1582-56"
       cx="128.13393"
       cy="105.07738"
       rx="1.4008927"
       ry="2.8519738" />
    <ellipse
       style="opacity:1;fill:#00ffff;fill-opacity:1;stroke:#04bcbe;stroke-width:3.2;stroke-miterlimit:4;stroke-dasharray:none;stroke-opacity:1"
       id="path1582-2"
       cx="154.97025"
       cy="91.470238"
       rx="1.4008927"
       ry="2.8519738" />
    <ellipse
       style="opacity:1;fill:#00ffff;fill-opacity:1;stroke:#04bcbe;stroke-width:3.2;stroke-miterlimit:4;stroke-dasharray:none;stroke-opacity:1"
       id="path1582-9"
       cx="169.7113"
       cy="92.604164"
       rx="1.4008927"
       ry="2.8519738" />
    <ellipse
       style="opacity:1;fill:#00ffff;fill-opacity:1;stroke:#04bcbe;stroke-width:3.2;stroke-miterlimit:4;stroke-dasharray:none;stroke-opacity:1"
       id="path1582-93"
       cx="195.03572"
       cy="103.1875"
       rx="1.4008927"
       ry="2.8519738" />
    <ellipse
       style="opacity:1;fill:#00ffff;fill-opacity:1;stroke:#04bcbe;stroke-width:3.2;stroke-miterlimit:4;stroke-dasharray:none;stroke-opacity:1"
       id="path1582-6"
       cx="213.93452"
       cy="103.94345"
       rx="1.4008927"
       ry="2.8519738" />
    <ellipse
       style="opacity:1;fill:#00ffff;fill-opacity:1;stroke:#04bcbe;stroke-width:2.3;stroke-miterlimit:4;stroke-dasharray:none;stroke-opacity:1"
       id="path1671"
       cx="62.891716"
       cy="137.7751"
       rx="5.5650907"
       ry="8.5255909"
       transform="rotate(-9.6478579)" />
    <ellipse
       style="opacity:1;fill:#00ffff;fill-opacity:1;stroke:#04bcbe;stroke-width:2.3;stroke-miterlimit:4;stroke-dasharray:none;stroke-opacity:1"
       id="path1671-0"
       cx="114.07649"
       cy="142.81726"
       rx="5.5650907"
       ry="8.5255909"
       transform="rotate(-3.4500661)" />
    <ellipse
       style="opacity:1;fill:#00ffff;fill-opacity:1;stroke:#04bcbe;stroke-width:2.3;stroke-miterlimit:4;stroke-dasharray:none;stroke-opacity:1"
       id="path1671-6"
       cx="159.66942"
       cy="127.06744"
       rx="5.5650907"
       ry="8.5255909"
       transform="rotate(-1.5655907)" />
    <ellipse
       style="opacity:1;fill:#00ffff;fill-opacity:1;stroke:#04bcbe;stroke-width:2.3;stroke-miterlimit:4;stroke-dasharray:none;stroke-opacity:1"
       id="path1671-2"
       cx="209.42776"
       cy="119.90792"
       rx="5.5650907"
       ry="8.5255909"
       transform="rotate(3.2844391)" />
    <path
       style="opacity:1;fill:#008724;fill-opacity:1;stroke:#006d9c;stroke-width:2.87514;stroke-miterlimit:4;stroke-dasharray:none;stroke-opacity:1"
       d="m 49.158108,473.12829 c 0.205501,-0.88393 5.749097,-41.78572 12.319103,-90.89286 6.570005,-49.10714 12.166132,-89.53478 12.435837,-89.83918 0.269706,-0.30441 2.272832,0.26256 4.451391,1.25994 21.54178,9.86215 46.637001,8.38484 67.046761,-3.94691 2.75162,-1.66256 5.07291,-2.89932 5.1584,-2.74834 5.17862,9.1446 9.74767,21.78812 35.54111,98.34963 15.39332,45.69133 27.87168,83.18747 27.72968,83.32475 -0.14201,0.13729 -23.40105,1.09545 -51.68677,2.12927 -28.28571,1.0338 -63.482139,2.34884 -78.214282,2.92229 -14.732143,0.57345 -28.668774,1.04397 -30.970291,1.04559 -3.974691,0.003 -4.165837,-0.0777 -3.810939,-1.60418 z"
       id="path1742"
       transform="matrix(0.26458333,0,0,0.26458333,60.303,65.392229)" />
    <path
       style="opacity:1;fill:#008724;fill-opacity:1;stroke:#006d9c;stroke-width:2.87514;stroke-miterlimit:4;stroke-dasharray:none;stroke-opacity:1"
       d="m 271.0822,452.20767 c -26.125,-3.66301 -49.54598,-6.92313 -52.04661,-7.2447 l -4.54661,-0.58468 -14.55632,-43.15963 -14.55632,-43.15963 1.43239,-8.62609 c 2.23433,-13.45541 1.57619,-12.37268 5.71385,-9.40007 9.6163,6.90862 22.98736,12.38106 34.28885,14.03355 8.06086,1.17866 21.57804,0.4865 28.91362,-1.48054 7.23778,-1.94081 14.34837,-4.89486 20.6551,-8.58102 2.71745,-1.5883 5.17978,-2.63617 5.47187,-2.32862 0.29208,0.30755 9.56492,26.34094 20.60632,57.85196 11.0414,31.51102 20.26523,57.78781 20.49741,58.39286 0.33147,0.86379 -0.0929,1.08361 -1.9757,1.02336 -1.31883,-0.0422 -23.77285,-3.07374 -49.89785,-6.73675 z"
       id="path1744"
       transform="matrix(0.26458333,0,0,0.26458333,60.303,65.392229)" />
    <path
       style="opacity:1;fill:#008724;fill-opacity:1;stroke:#006d9c;stroke-width:2.87514;stroke-miterlimit:4;stroke-dasharray:none;stroke-opacity:1"
       d="m 403.08365,442.6573 c -42.70277,-1.82804 -77.80573,-3.48805 -78.00658,-3.6889 -0.43196,-0.43196 -20.42345,-57.17384 -20.42345,-57.96792 0,-0.29909 5.66351,-13.965 12.58557,-30.36871 6.92206,-16.4037 16.01269,-38.36926 20.2014,-48.81236 l 7.61584,-18.98744 4.97717,3.50676 c 11.63153,8.19523 26.09293,13.52379 39.43657,14.5311 16.22148,1.22456 34.91574,-4.70495 49.46917,-15.6908 l 6.07143,-4.58309 2.57918,10.10546 c 1.41854,5.558 5.65133,22.15903 9.4062,36.89117 3.75487,14.73215 11.99602,47.05378 18.31368,71.82585 6.31766,24.77208 11.48665,45.42387 11.48665,45.89286 0,0.54136 -1.10845,0.81931 -3.03571,0.76124 -1.66965,-0.0503 -37.97435,-1.58717 -80.67712,-3.41522 z"
       id="path1746"
       transform="matrix(0.26458333,0,0,0.26458333,60.303,65.392229)" />
    <path
       style="opacity:1;fill:#008724;fill-opacity:1;stroke:#006d9c;stroke-width:2.87514;stroke-miterlimit:4;stroke-dasharray:none;stroke-opacity:1"
       d="m 557.67267,437.273 c -36.6431,-5.60448 -66.7471,-10.31638 -66.89779,-10.47091 -0.15069,-0.15452 -4.44456,-16.7207 -9.54195,-36.81372 l -9.26797,-36.53277 5.28671,-15.25294 c 2.9077,-8.38912 5.44645,-15.69464 5.64167,-16.2345 0.23492,-0.64964 2.22295,0.87921 5.87905,4.52115 3.03825,3.02648 8.63877,7.58673 12.4456,10.13388 28.27754,18.92051 61.85811,16.88092 91.09012,-5.53257 4.84573,-3.71544 5.62334,-4.09617 6.09745,-2.98543 0.29888,0.7002 6.98066,27.30881 14.84839,59.13024 7.86774,31.82143 14.47652,58.41964 14.68617,59.10714 0.30302,0.99362 -0.0316,1.23671 -1.63122,1.1852 -1.10683,-0.0356 -31.99313,-4.65029 -68.63623,-10.25477 z"
       id="path1748"
       transform="matrix(0.26458333,0,0,0.26458333,60.303,65.392229)" />
  </g>
</svg>
