<?xml version="1.0" encoding="UTF-8" standalone="no"?>
<svg
   xmlns:dc="http://purl.org/dc/elements/1.1/"
   xmlns:cc="http://creativecommons.org/ns#"
   xmlns:rdf="http://www.w3.org/1999/02/22-rdf-syntax-ns#"
   xmlns:svg="http://www.w3.org/2000/svg"
   xmlns="http://www.w3.org/2000/svg"
   xmlns:sodipodi="http://sodipodi.sourceforge.net/DTD/sodipodi-0.dtd"
   xmlns:inkscape="http://www.inkscape.org/namespaces/inkscape"
   width="138.68323mm"
   height="198.32478mm"
   viewBox="0 0 138.68323 198.32478"
   version="1.1"
   id="svg1821"
   inkscape:version="1.0.1 (1.0.1+r75)"
   sodipodi:docname="cow.svg">
  <defs
     id="defs1815" />
  <sodipodi:namedview
     id="base"
     pagecolor="#ffffff"
     bordercolor="#666666"
     borderopacity="1.0"
     inkscape:pageopacity="0.0"
     inkscape:pageshadow="2"
     inkscape:zoom="0.7"
     inkscape:cx="290.09077"
     inkscape:cy="600.72686"
     inkscape:document-units="mm"
     inkscape:current-layer="layer1"
     inkscape:document-rotation="0"
     showgrid="false"
     fit-margin-top="0"
     fit-margin-left="0"
     fit-margin-right="0"
     fit-margin-bottom="0"
     inkscape:window-width="1680"
     inkscape:window-height="1022"
     inkscape:window-x="0"
     inkscape:window-y="0"
     inkscape:window-maximized="1" />
  <metadata
     id="metadata1818">
    <rdf:RDF>
      <cc:Work
         rdf:about="">
        <dc:format>image/svg+xml</dc:format>
        <dc:type
           rdf:resource="http://purl.org/dc/dcmitype/StillImage" />
        <dc:title></dc:title>
      </cc:Work>
    </rdf:RDF>
  </metadata>
  <g
     inkscape:label="Layer 1"
     inkscape:groupmode="layer"
     id="layer1"
     transform="translate(-38.450518,-69.600316)">
    <ellipse
       style="opacity:1;fill:#ffffff;fill-opacity:1;stroke:#000000;stroke-width:6.035;stroke-miterlimit:4;stroke-dasharray:none;stroke-opacity:1"
       id="path1827"
       cx="107.79213"
       cy="186.59196"
       rx="66.324112"
       ry="64.142677" />
    <ellipse
       style="opacity:1;fill:#ffffff;fill-opacity:1;stroke:#000000;stroke-width:5.81007;stroke-miterlimit:4;stroke-dasharray:none;stroke-opacity:1"
       id="path1829"
       cx="106.92916"
       cy="133.24655"
       rx="42.695953"
       ry="46.498489" />
    <path
       style="fill:none;stroke:#000000;stroke-width:3.565;stroke-linecap:butt;stroke-linejoin:miter;stroke-miterlimit:4;stroke-dasharray:none;stroke-opacity:1"
       d="M 82.897861,93.527362 76.48356,71.739622 c 9.574956,1.309337 17.286769,15.671341 17.286769,15.671341"
       id="path1831"
       sodipodi:nodetypes="ccc" />
    <path
       style="fill:none;stroke:#000000;stroke-width:3.565;stroke-linecap:butt;stroke-linejoin:miter;stroke-miterlimit:4;stroke-dasharray:none;stroke-opacity:1"
       d="m 120.83454,87.546864 c 0,0 10.80254,-12.333665 16.50614,-11.626088 l -8.63342,19.459152"
       id="path1833"
       sodipodi:nodetypes="ccc" />
    <path
       style="fill:none;stroke:#000000;stroke-width:3.365;stroke-linecap:butt;stroke-linejoin:miter;stroke-miterlimit:4;stroke-dasharray:none;stroke-opacity:1"
       d="m 128.70726,95.379928 c 0,0 42.52565,7.231012 37.65971,13.057522 -12.29915,-0.0428 -17.8932,8.72571 -17.8932,8.72571"
       id="path1835"
       sodipodi:nodetypes="ccc" />
    <path
       style="fill:none;stroke:#000000;stroke-width:3.365;stroke-linecap:butt;stroke-linejoin:miter;stroke-miterlimit:4;stroke-dasharray:none;stroke-opacity:1"
       d="m 78.811634,99.625833 c 0,0 -35.32139,13.333477 -33.03499,19.176497 0,0 18.771851,-2.61435 15.687028,2.92784"
       id="path1837"
       sodipodi:nodetypes="ccc" />
    <ellipse
       style="opacity:1;fill:#ffffff;fill-opacity:1;stroke:#000000;stroke-width:3.565;stroke-miterlimit:4;stroke-dasharray:none;stroke-opacity:1"
       id="path1839"
       cx="88.352692"
       cy="119.75801"
       rx="6.2893004"
       ry="6.0753903" />
    <ellipse
       style="opacity:1;fill:#ffffff;fill-opacity:1;stroke:#000000;stroke-width:3.565;stroke-miterlimit:4;stroke-dasharray:none;stroke-opacity:1"
       id="path1839-6"
       cx="111.71867"
       cy="118.66767"
       rx="6.2893004"
       ry="6.0753903" />
    <ellipse
       style="opacity:1;fill:#000000;fill-opacity:1;stroke:#000000;stroke-width:3.565;stroke-miterlimit:4;stroke-dasharray:none;stroke-opacity:1"
       id="path1856"
       cx="87.890709"
       cy="122.30987"
       rx="0.45000592"
       ry="0.3125132" />
    <ellipse
       style="opacity:1;fill:#ffffff;fill-opacity:1;stroke:#000000;stroke-width:3.565;stroke-miterlimit:4;stroke-dasharray:none;stroke-opacity:1"
       id="path1856-8"
       cx="111.18412"
       cy="121.8749"
       rx="0.45000595"
       ry="0.3125132" />
    <path
       style="opacity:1;fill:#000000;fill-opacity:1;stroke:#000000;stroke-width:2.40607;stroke-miterlimit:4;stroke-dasharray:none;stroke-opacity:1"
       d="m 331.24067,467.63948 c -0.90118,-0.22523 -2.12474,-1.02386 -2.68516,-1.75262 -0.9189,-1.19493 -1.21566,-2.11661 -1.19196,-3.70199 0.0257,-1.71826 0.45288,-2.80149 1.5294,-3.87801 2.46099,-2.46098 6.19307,-1.67189 7.71426,1.63106 0.52782,1.14606 0.52782,3.51495 0,4.661 -1.00626,2.18489 -3.3889,3.53484 -5.36654,3.04056 z m 2.27589,-4.64304 c 0.65368,-0.65368 0.65144,-0.80459 -0.0219,-1.47797 -0.49375,-0.49376 -0.62564,-0.53606 -1.43038,-0.45873 -1.03284,0.0992 -1.59713,0.52629 -1.59713,1.20868 0,0.77295 0.65414,1.21136 1.84409,1.23591 0.52833,0.0109 0.80181,-0.10434 1.20536,-0.50789 z"
       id="path1879"
       transform="scale(0.26458333)" />
    <path
       style="opacity:1;fill:#000000;fill-opacity:1;stroke:#000000;stroke-width:2.40607;stroke-miterlimit:4;stroke-dasharray:none;stroke-opacity:1"
       d="m 419.21711,464.39637 c -0.44197,-0.0849 -1.31097,-0.29031 -1.93112,-0.45647 -1.02306,-0.27413 -1.16245,-0.36971 -1.50413,-1.03144 -0.52203,-1.01101 -0.54969,-3.26602 -0.0539,-4.39577 0.7718,-1.75874 2.08314,-2.90442 3.71416,-3.24495 0.76383,-0.15947 1.119,-0.14191 1.93343,0.0956 3.39151,0.98914 4.81636,5.48027 2.71473,8.55684 l -0.45744,0.66964 -1.80607,-0.0196 c -0.99334,-0.0108 -2.16768,-0.089 -2.60964,-0.17392 z"
       id="path1881"
       transform="scale(0.26458333)" />
    <ellipse
       style="opacity:1;fill:#ffffff;fill-opacity:1;stroke:#000000;stroke-width:4.78949;stroke-miterlimit:4;stroke-dasharray:none;stroke-opacity:1"
       id="path1883"
       cx="103.6058"
       cy="166.1212"
       rx="15.539755"
       ry="10.761496" />
    <ellipse
       style="opacity:1;fill:#ffffff;fill-opacity:1;stroke:#000000;stroke-width:3.565;stroke-miterlimit:4;stroke-dasharray:none;stroke-opacity:1"
       id="path1885"
       cx="98.111252"
       cy="167.34285"
       rx="1.5374084"
       ry="2.589462" />
    <ellipse
       style="opacity:1;fill:#ffffff;fill-opacity:1;stroke:#000000;stroke-width:3.565;stroke-miterlimit:4;stroke-dasharray:none;stroke-opacity:1"
       id="path1885-7"
       cx="107.5675"
       cy="166.70619"
       rx="1.5374085"
       ry="2.589462"
       inkscape:transform-center-x="0.035043081"
       inkscape:transform-center-y="-2.4249397" />
    <path
       style="fill:none;stroke:#000000;stroke-width:0.264583px;stroke-linecap:butt;stroke-linejoin:miter;stroke-opacity:1"
       d="m 73.480564,183.49318 c -1.217885,4.85695 -1.535578,8.19075 -0.56415,13.04788 0.365207,1.82605 -0.590346,4.27659 0,6.04762 0.418216,1.25466 6.331826,13.25334 6.803573,13.60715 0.637473,0.4781 1.555136,0.39959 2.267854,0.75595 1.157801,0.5789 0.59117,1.34712 1.511906,2.26786 1.140907,1.1409 2.39621,2.19367 3.779761,3.02381 0.432149,0.25929 1.043982,-0.18717 1.511906,0 5.470821,2.18833 5.795536,3.9058 12.095236,0.75595 3.06543,-1.53272 7.47905,-3.61881 9.07143,-6.80357 0.22538,-0.45077 -0.0713,-1.013 0,-1.51191 1.3775,-9.64247 1.55817,-4.2581 0,-13.60714 -0.0136,-0.0818 0.21699,-2.79312 0,-3.02381 -0.2898,-0.3081 -1.96316,-0.31429 -2.41657,-0.54579 -3.73274,-1.90585 -5.17358,-1.90901 -9.428222,-2.75993 -1.421339,-0.28427 -2.681158,-1.71856 -3.779761,-2.26786 -1.012489,-0.50625 -1.047469,-1.80342 -1.511906,-2.26786 -0.875853,-0.87585 -3.491029,-1.22317 -4.535715,-2.26785 -0.178178,-0.17819 0.178181,-0.57778 0,-0.75596 -0.886716,-0.88672 -3.261095,-1.63055 -4.535712,-2.26785 -3.146094,-1.57305 0.808141,0.0522 -0.755954,-1.51191 -0.349449,-0.34945 -1.811433,0.22821 -2.267855,0 -3.228451,-1.61423 -3.141933,-1.82692 -7.245821,0.0852 z"
       id="path1902" />
    <path
       style="fill:none;stroke:#000000;stroke-width:0.264583px;stroke-linecap:butt;stroke-linejoin:miter;stroke-opacity:1"
       d="m 169.97569,164.65707 c -12.32788,0.85459 -21.88816,4.05127 -27.42205,15.11905 -0.15937,0.31874 -0.68607,0.40652 -0.75596,0.75595 -0.39534,1.97673 0,4.03175 0,6.04763 0,1.69122 -0.33251,3.62911 0,5.29166 0.9823,4.9115 4.08835,7.65834 8.26505,9.05057 0.75595,0.25199 1.5119,-0.50396 2.26785,0 0.46883,0.31255 0.35754,1.11349 0.75596,1.51191 0.35636,0.35636 1.06114,-0.22538 1.5119,0 2.38275,1.19137 9.44326,6.79127 10.58334,9.07143 0.48554,0.97109 0.18987,6.80357 -0.6448,6.80357"
       id="path1904" />
    <path
       style="fill:none;stroke:#000000;stroke-width:0.264583px;stroke-linecap:butt;stroke-linejoin:miter;stroke-opacity:1"
       d="m 148.47377,117.16316 c -2.22229,4.91509 -4.24388,9.92595 -6.66686,14.74527 -0.36555,0.72707 -3.21354,-0.73554 -4.10694,1.15192 -6.44824,13.62312 1.84095,-2.92794 -1.1313,5.98879 -0.2873,0.86192 -1.10559,1.45524 -1.5119,2.26786 -1.67524,3.35049 4.4344,4.68903 3.78082,6.76449 -0.91861,2.91707 1.39374,2.78963 2.45537,4.38272 0.65473,0.9825 1.31838,1.04329 1.93067,1.95604 0.14291,0.21304 0,1.02615 0,0.76961 0,-0.25653 0,-0.51307 0,-0.76961"
       id="path1906" />
    <path
       style="fill:none;stroke:#000000;stroke-width:0.264583px;stroke-linecap:butt;stroke-linejoin:miter;stroke-opacity:1"
       d="m 102.9301,88.794533 c -0.0657,3.952518 0.92062,7.958879 4.74671,9.871925 1.39398,0.696989 3.07292,0.578855 4.54358,1.069078 2.1354,0.711794 5.61057,0.980694 7.75084,0.267274 1.75151,-0.58384 2.68251,-4.286131 3.74177,-5.345396 0.13364,-0.133633 0.4009,-0.133633 0.53454,-0.267269 0.28455,-0.284548 0.0792,-1.150178 0.26459,-1.524508 0.29246,-0.590412 0.97571,-1.295931 0.97571,-1.98479"
       id="path1910" />
    <path
       style="fill:none;stroke:#000000;stroke-width:0.264583px;stroke-linecap:butt;stroke-linejoin:miter;stroke-opacity:1"
       d="m 116.41001,249.03915 c 0.0536,-2.2504 -0.0181,-4.47375 -0.26728,-6.71628 -0.0567,-0.51027 -0.57056,-2.50761 -0.53453,-2.93996 0.16212,-1.94545 1.76328,-3.31375 3.20684,-4.27612 0.20966,-0.13977 0.30058,-0.44095 0.53454,-0.53454 0.24815,-0.0993 0.54825,0.0845 0.80181,0 1.49395,-0.49798 2.45584,-1.91425 4.00904,-1.60361 1.81892,0.36378 3.91148,0.87454 5.61266,1.60361 0.88666,0.38 2.15274,1.68785 3.20723,1.33635 2.51246,-0.83748 4.67058,-3.44379 6.94901,-4.81085 1.35773,-0.81464 2.77765,-1.08657 4.27631,-1.33635 0.52727,-0.0879 1.07946,0.10483 1.60362,0 0.19534,-0.0391 0.33533,-0.26727 0.53454,-0.26727 0.65002,0 1.08651,0.46336 1.87089,0.26727 0.12223,-0.0306 0.14774,-0.22743 0.26727,-0.26727 0.84879,-0.28293 2.34018,0 3.20723,0 0.17818,0 0.40688,-0.1243 0.53454,0 0.27077,0.26367 0.41408,0.7096 0.77923,0.85367"
       id="path1912" />
    <path
       style="opacity:1;fill:#ffffff;fill-opacity:1;stroke:#000000;stroke-width:13.6108;stroke-miterlimit:4;stroke-dasharray:none;stroke-opacity:1"
       d="m 345.79867,843.4527 c -5.27805,-2.47658 -11.0481,-4.52678 -12.82235,-4.55599 -4.66084,-0.0768 -15.24229,-8.39643 -18.49238,-14.53966 -2.23852,-4.23118 -3.12443,-4.94887 -7.79901,-6.31816 l -5.27362,-1.54477 -12.40405,-24.93822 -12.40404,-24.93822 -0.0438,-12.12183 c -0.0241,-6.66701 -0.62283,-16.55388 -1.33051,-21.97082 -1.35269,-10.35418 -0.52966,-22.75384 2.22673,-33.54776 1.21499,-4.75786 1.5574,-5.12537 6.7796,-7.27653 7.10652,-2.92735 9.37172,-2.89117 16.10659,0.25725 3.82163,1.78653 6.57482,2.43483 8.82033,2.07695 1.79547,-0.28616 3.52693,-0.0957 3.84769,0.42334 0.32076,0.51901 -0.15231,0.94364 -1.05126,0.94364 -3.36483,0 0.0366,2.37118 10.22787,7.13007 8.11294,3.78838 10.48025,5.34466 10.48025,6.88974 0,1.93155 3.94438,4.24752 13.95141,8.19169 2.17767,0.85831 3.94009,2.58156 5.05076,4.93852 1.0985,2.33112 4.26979,5.45583 8.90612,8.77531 6.66347,4.77085 8.05645,5.3223 18.68783,7.39811 6.31821,1.23365 15.35149,3.76654 20.07395,5.62866 4.72246,1.86211 10.06365,3.69185 11.86929,4.06609 3.18095,0.65927 3.283,0.83908 3.283,5.78439 0,2.80719 0.9971,10.76054 2.21578,17.67413 l 2.21579,12.57016 -2.22795,13.81288 c -1.22538,7.59708 -2.22248,14.98196 -2.21579,16.41084 0.0309,6.5895 -11.12082,15.88178 -31.03104,25.85701 -12.17745,6.10103 -14.01824,6.72871 -20.70813,7.06116 -6.93977,0.34486 -7.86904,0.11785 -16.93903,-4.13798 z"
       id="path1914"
       transform="scale(0.26458333)" />
    <path
       style="opacity:1;fill:#ffffff;fill-opacity:1;stroke:#000000;stroke-width:13.6108;stroke-miterlimit:4;stroke-dasharray:none;stroke-opacity:1"
       d="m 440.75301,927.88857 c 0,-3.27131 -0.68236,-9.86076 -1.51635,-14.64321 -1.37052,-7.85917 -1.36167,-9.08196 0.0921,-12.71517 1.73001,-4.32372 11.16502,-13.19928 14.03126,-13.19928 0.92298,0 4.30413,-1.4547 7.51367,-3.23266 l 5.83552,-3.23265 8.99274,2.20134 c 4.94601,1.21074 12.17472,3.80389 16.06381,5.76256 3.88909,1.95868 8.11196,3.55919 9.38415,3.5567 3.52151,-0.007 9.08053,-3.21263 18.38021,-10.59935 9.86603,-7.83657 12.11806,-9.10284 19.7027,-11.07838 5.57369,-1.45177 35.87052,-3.28972 35.87052,-2.17608 0,0.31579 -2.09952,2.50943 -4.66559,4.87476 -30.53451,28.14573 -75.61892,50.58859 -116.20741,57.84763 -4.91238,0.87855 -9.95438,1.81883 -11.20444,2.0895 -2.15541,0.46671 -2.27284,0.18481 -2.27284,-5.45571 z"
       id="path1916"
       transform="scale(0.26458333)" />
    <path
       style="opacity:1;fill:#ffffff;fill-opacity:1;stroke:#000000;stroke-width:13.6108;stroke-miterlimit:4;stroke-dasharray:none;stroke-opacity:1"
       d="m 620.10261,792.63134 c -10.74021,-11.913 -32.84122,-28.53904 -37.93698,-28.53904 -2.17996,0 -3.24601,-0.69797 -4.24291,-2.77792 -1.18627,-2.47507 -1.91041,-2.79365 -6.64218,-2.92223 -9.33653,-0.2537 -22.24812,-8.42646 -28.1949,-17.84678 -5.57555,-8.83224 -6.36814,-13.35231 -6.36814,-36.31693 0,-20.43001 0.0786,-21.26006 2.27284,-24.0039 1.25006,-1.56316 3.86383,-5.7199 5.80838,-9.23719 4.89191,-8.84849 20.64307,-24.59491 30.0247,-30.01565 10.6085,-6.12963 23.56532,-10.81945 37.92312,-13.72658 19.35742,-3.91944 18.08192,-4.32785 21.83541,6.99168 7.73714,23.33317 11.23651,45.33288 11.22374,70.56077 -0.0121,23.86879 -2.43655,41.53963 -8.63302,62.92233 -2.8349,9.78264 -10.27255,29.43516 -11.37948,30.06804 -0.37804,0.21613 -2.9388,-2.10433 -5.69058,-5.1566 z"
       id="path1918"
       transform="scale(0.26458333)" />
    <path
       style="opacity:1;fill:#ffffff;fill-opacity:1;stroke:#000000;stroke-width:13.6108;stroke-miterlimit:4;stroke-dasharray:none;stroke-opacity:1"
       d="m 534.4887,575.46485 c -1.42768,-1.53805 -4.25921,-4.22942 -6.29229,-5.98082 -3.58662,-3.08971 -3.67645,-3.3355 -3.02197,-8.26919 l 0.67453,-5.08483 -7.69772,-7.4279 c -8.73904,-8.43272 -9.29958,-10.28745 -5.00221,-16.5514 3.0657,-4.46863 6.39586,-12.56856 6.39586,-15.55662 0,-1.11276 -0.67615,-2.00947 -1.51522,-2.00947 -1.92966,0 -1.9474,0.12325 0.85212,-5.91924 3.60828,-7.78809 4.1828,-8.2229 10.86503,-8.2229 7.04913,0 6.41852,0.75152 14.6686,-17.48107 6.56496,-14.50849 6.59873,-14.50899 8.36308,-0.12255 2.45045,19.98075 0.70003,45.68863 -4.46423,65.56476 -2.50553,9.64328 -8.95011,27.56322 -10.45864,29.08153 -0.42414,0.42688 -1.93926,-0.48226 -3.36694,-2.0203 z"
       id="path1920"
       transform="scale(0.26458333)" />
    <path
       style="opacity:1;fill:#ffffff;fill-opacity:1;stroke:#000000;stroke-width:13.6108;stroke-miterlimit:4;stroke-dasharray:none;stroke-opacity:1"
       d="m 427.11595,376.76379 c -2.77792,-0.77252 -8.00546,-1.93608 -11.61676,-2.58571 -7.80831,-1.40462 -11.69579,-3.61889 -17.0675,-9.72147 -4.40182,-5.00074 -6.87774,-11.12778 -7.85428,-19.43666 l -0.6405,-5.44962 18.08444,0.52882 c 23.02774,0.67338 34.33005,3.24702 55.23617,12.5778 5.8155,2.59556 5.8294,2.61223 3.77466,4.52651 -1.13428,1.05674 -3.60128,4.96636 -5.48223,8.68804 -5.5025,10.88737 -6.9095,11.77445 -19.108,12.04715 -6.37745,0.14257 -12.19119,-0.30311 -15.326,-1.17486 z"
       id="path1924"
       transform="scale(0.26458333)" />
    <path
       style="opacity:1;fill:#ffffff;fill-opacity:1;stroke:#000000;stroke-width:13.6108;stroke-miterlimit:4;stroke-dasharray:none;stroke-opacity:1"
       d="m 434.69209,370.44384 c -9.12363,-1.01993 -23.03472,-4.64858 -26.46067,-6.90214 -3.87444,-2.54858 -8.23922,-8.98631 -9.46368,-13.95825 l -0.70723,-2.87168 11.49726,0.66789 c 6.3235,0.36735 15.42913,1.31077 20.23474,2.09651 8.62059,1.40949 25.5976,6.88399 26.65533,8.59543 0.5649,0.91403 -2.41543,7.29291 -4.75662,10.18071 -1.42152,1.75341 -10.47616,2.92074 -16.99913,2.19153 z"
       id="path1928"
       transform="scale(0.26458333)" />
    <path
       style="opacity:1;fill:#ffffff;fill-opacity:1;stroke:#000000;stroke-width:13.6108;stroke-miterlimit:4;stroke-dasharray:none;stroke-opacity:1"
       d="m 422.22015,360.57653 c -4.91502,-1.28028 -9.67176,-3.06313 -10.57052,-3.9619 -1.50539,-1.50538 -1.35845,-1.63254 1.86533,-1.6141 9.06818,0.0519 33.29896,5.29804 33.29896,7.20953 0,1.7231 -15.71462,0.67933 -24.59377,-1.63353 z"
       id="path1930"
       transform="scale(0.26458333)" />
    <path
       style="opacity:1;fill:#ffffff;fill-opacity:1;stroke:#000000;stroke-width:13.6108;stroke-miterlimit:4;stroke-dasharray:none;stroke-opacity:1"
       d="m 533.02371,563.52888 c -0.32995,-0.85986 -0.3376,-3.47363 -0.017,-5.80838 0.57488,-4.18635 0.47799,-4.35094 -7.01177,-11.91115 l -7.59469,-7.66613 2.98201,-5.97092 c 4.18755,-8.38477 5.54766,-13.18964 4.96443,-17.53788 -0.7226,-5.38743 0.59689,-7.12087 5.42039,-7.12087 5.5801,0 9.42387,-2.25824 12.45658,-7.3183 l 2.57624,-4.29845 9.2e-4,5.55584 c 0.003,17.44147 -3.14688,37.77115 -8.334,53.79062 -3.13598,9.68492 -4.25342,11.38591 -5.44312,8.28562 z"
       id="path1932"
       transform="scale(0.26458333)" />
    <path
       style="opacity:1;fill:#ffffff;fill-opacity:1;stroke:#000000;stroke-width:13.6108;stroke-miterlimit:4;stroke-dasharray:none;stroke-opacity:1"
       d="m 530.75562,540.44569 -3.43445,-3.54346 2.75418,-6.35061 c 1.5148,-3.49283 3.00548,-8.47246 3.31263,-11.06584 0.46775,-3.94943 0.94753,-4.7896 2.95414,-5.17319 2.02681,-0.38745 2.39506,-0.0518 2.39162,2.17988 -0.004,2.6214 -2.39027,17.7749 -3.80428,24.15863 l -0.73939,3.33805 z"
       id="path1934"
       transform="scale(0.26458333)" />
    <path
       style="opacity:1;fill:#ffffff;fill-opacity:1;stroke:#000000;stroke-width:13.6108;stroke-miterlimit:4;stroke-dasharray:none;stroke-opacity:1"
       d="m 617.02463,779.52149 c -8.13671,-7.66608 -20.98782,-17.11051 -27.69954,-20.35672 -3.01189,-1.45674 -6.47773,-3.63498 -7.70185,-4.84055 -1.36689,-1.34617 -4.12602,-2.44172 -7.15073,-2.8393 -12.57426,-1.65284 -21.60888,-7.82276 -26.75166,-18.26921 l -3.30816,-6.71983 -0.40285,-19.84013 -0.40284,-19.84012 5.89916,-9.44146 c 11.40321,-18.25056 28.7531,-32.18679 47.82049,-38.41162 6.36564,-2.07815 28.4568,-7.36466 28.90413,-6.91687 0.12182,0.12194 1.60892,4.89216 3.30466,10.60048 12.94031,43.56045 11.82456,93.0232 -3.02402,134.05926 -1.71153,4.73004 -3.18252,8.5835 -3.26887,8.56325 -0.0864,-0.0203 -2.88442,-2.6065 -6.21792,-5.74718 z"
       id="path1936"
       transform="scale(0.26458333)" />
    <path
       style="opacity:1;fill:#ffffff;fill-opacity:1;stroke:#000000;stroke-width:13.6108;stroke-miterlimit:4;stroke-dasharray:none;stroke-opacity:1"
       d="m 352.3159,838.2171 c -10.75062,-4.47632 -13.01832,-5.31495 -17.43708,-6.44845 -4.46568,-1.14553 -10.36082,-6.25659 -17.00874,-14.74652 -2.1353,-2.72694 -4.53512,-4.46697 -7.30561,-5.29702 l -4.12577,-1.23611 -10.97115,-22.52251 -10.97114,-22.5225 -0.67123,-12.04006 c -1.62449,-29.13915 -1.73903,-41.37112 -0.44383,-47.3954 1.17693,-5.47415 1.66394,-6.23731 5.03046,-7.88288 3.63842,-1.77848 3.85537,-1.77102 9.09137,0.31278 2.9502,1.17411 6.95499,3.0209 8.89954,4.10397 1.94454,1.08308 7.1167,3.81775 11.49369,6.07705 4.377,2.2593 9.00983,5.35765 10.2952,6.88523 1.28537,1.52757 5.52449,4.2466 9.42027,6.04228 5.02425,2.31582 7.68767,4.24287 9.1626,6.62935 2.22764,3.60441 10.41733,10.29413 16.19678,13.2303 1.94454,0.9879 8.76307,3.06396 15.15229,4.61345 6.38921,1.5495 15.45536,4.1233 20.14701,5.71955 l 8.53025,2.90229 2.3245,14.57419 2.32451,14.57418 -2.10406,15.15229 c -1.15723,8.33376 -2.44605,15.83414 -2.86403,16.66752 -1.69946,3.38842 -13.13109,11.32046 -25.17265,17.46647 -15.71502,8.02096 -20.17589,8.81188 -28.99318,5.14055 z"
       id="path1938"
       transform="scale(0.26458333)" />
    <path
       style="opacity:1;fill:#ffffff;fill-opacity:1;stroke:#000000;stroke-width:13.6108;stroke-miterlimit:4;stroke-dasharray:none;stroke-opacity:1"
       d="m 354.38496,831.28589 c -1.66675,-0.79403 -7.04809,-2.90422 -11.95853,-4.6893 -8.37684,-3.04522 -9.34354,-3.70769 -15.65736,-10.72981 -3.70111,-4.11632 -8.64415,-8.4718 -10.98453,-9.67884 -4.04095,-2.08409 -4.76777,-3.23235 -14.43224,-22.80055 l -10.17699,-20.60594 -0.54254,-27.88139 c -0.34097,-17.5224 -0.17403,-28.41041 0.44933,-29.30527 0.83893,-1.20432 1.51253,-1.2164 4.36818,-0.0784 6.99798,2.78877 24.30782,12.45523 28.34755,15.83033 2.3102,1.93012 6.48018,4.66457 9.26662,6.07657 2.78644,1.412 7.58881,5.12626 10.67194,8.25392 10.43655,10.5873 13.20759,11.89755 43.03563,20.34891 6.14562,1.74127 11.71918,3.50299 12.38572,3.91493 0.66653,0.41194 2.05739,5.94653 3.09082,12.2991 1.86477,11.46303 1.86278,11.66011 -0.2639,26.13622 l -2.14283,14.58611 -7.07107,4.82692 c -3.88909,2.6548 -11.36431,6.96229 -16.6116,9.5722 -10.46201,5.20359 -16.72098,6.33162 -21.7742,3.92429 z"
       id="path1940"
       transform="scale(0.26458333)" />
    <path
       style="opacity:1;fill:#ffffff;fill-opacity:1;stroke:#000000;stroke-width:13.6108;stroke-miterlimit:4;stroke-dasharray:none;stroke-opacity:1"
       d="m 347.51545,820.79848 c -7.61142,-3.14496 -10.05716,-4.80781 -17.00727,-11.56325 -4.4646,-4.33954 -9.23125,-8.39756 -10.59257,-9.01781 -1.82066,-0.82956 -4.96635,-6.08845 -11.89698,-19.88912 l -9.42188,-18.76138 -0.61077,-23.56043 -0.61076,-23.56044 8.30182,4.50037 c 11.98244,6.4956 26.88975,16.7091 34.77357,23.82454 9.26606,8.36295 17.08622,12.22398 36.15771,17.85205 8.88934,2.62328 16.46888,5.24355 16.84342,5.82283 0.37454,0.57928 1.24101,4.81747 1.92548,9.41821 0.97399,6.54664 0.98244,10.29355 0.0389,17.23698 -2.22326,16.36124 -1.6771,15.17908 -9.28707,20.10194 -10.85606,7.02275 -20.98128,11.51554 -25.65471,11.38359 -2.23801,-0.0632 -8.06953,-1.76783 -12.95893,-3.78808 z"
       id="path1942"
       transform="scale(0.26458333)" />
    <path
       style="opacity:1;fill:#ffffff;fill-opacity:1;stroke:#000000;stroke-width:13.6108;stroke-miterlimit:4;stroke-dasharray:none;stroke-opacity:1"
       d="m 353.56655,815.16004 c -9.42205,-3.32507 -9.48932,-3.37355 -27.97093,-20.15671 -2.28351,-2.07365 -6.48674,-8.96446 -11.8693,-19.45861 l -8.33376,-16.24798 v -15.78497 c 0,-8.68173 0.30324,-15.78496 0.67386,-15.78496 1.34966,0 23.21468,15.10348 28.62057,19.76995 11.28432,9.74084 19.08094,13.67212 39.90102,20.11929 6.66701,2.06451 12.26321,3.88649 12.43601,4.04884 0.1728,0.16235 0.71919,3.1605 1.2142,6.66254 0.90348,6.39181 -0.22912,20.44949 -1.99485,24.75996 -0.9704,2.36893 -14.37525,10.60157 -21.1595,12.9952 -2.41281,0.85128 -4.44341,1.5382 -4.51246,1.52649 -0.069,-0.0117 -3.22123,-1.11379 -7.00486,-2.44904 z"
       id="path1944"
       transform="scale(0.26458333)" />
    <path
       style="opacity:1;fill:#ffffff;fill-opacity:1;stroke:#000000;stroke-width:13.6108;stroke-miterlimit:4;stroke-dasharray:none;stroke-opacity:1"
       d="m 354.38496,807.8156 c -5.27665,-2.12791 -8.5267,-4.43429 -16.99023,-12.05701 -8.32825,-7.50089 -9.65922,-9.37824 -18.32753,-25.85124 l -6.68812,-12.7099 0.29481,-8.27829 0.29482,-8.2783 7.57614,5.44335 c 4.16688,2.99384 10.21986,7.59854 13.45107,10.23267 7.74588,6.31456 18.48873,11.57509 34.41709,16.85327 l 13.01789,4.31373 -0.5405,10.59024 c -0.3547,6.94979 -1.00997,11.04576 -1.90621,11.91538 -2.41784,2.34602 -16.45129,9.53249 -18.53831,9.4934 -1.11117,-0.0208 -3.83858,-0.7711 -6.06092,-1.6673 z"
       id="path1946"
       transform="scale(0.26458333)" />
    <path
       style="opacity:1;fill:#ffffff;fill-opacity:1;stroke:#000000;stroke-width:13.6108;stroke-miterlimit:4;stroke-dasharray:none;stroke-opacity:1"
       d="m 352.36625,798.36791 c -9.68311,-6.20335 -18.66201,-16.55047 -25.63267,-29.53859 -3.52167,-6.56178 -6.17212,-12.16142 -5.88989,-12.44364 0.28223,-0.28223 4.30792,2.316 8.94599,5.77383 9.39665,7.00554 19.84445,12.25039 34.19173,17.16442 5.27805,1.80777 9.73807,3.39081 9.91116,3.51787 0.1731,0.12707 0.002,2.99681 -0.38065,6.37722 -0.67275,5.94631 -0.84063,6.23132 -5.16232,8.764 -6.97513,4.0877 -10.08651,4.16263 -15.98335,0.38489 z"
       id="path1948"
       transform="scale(0.26458333)" />
    <path
       style="opacity:1;fill:#ffffff;fill-opacity:1;stroke:#000000;stroke-width:13.6108;stroke-miterlimit:4;stroke-dasharray:none;stroke-opacity:1"
       d=""
       id="path1952"
       transform="scale(0.26458333)" />
    <path
       style="opacity:1;fill:#ffffff;fill-opacity:1;stroke:#000000;stroke-width:13.6108;stroke-miterlimit:4;stroke-dasharray:none;stroke-opacity:1"
       d="m 355.41716,791.3904 c -4.44481,-2.92982 -12.95267,-11.5395 -11.787,-11.92806 0.55409,-0.18469 2.74603,0.53726 4.87097,1.60434 2.12494,1.06708 6.93187,2.94898 10.68206,4.182 7.47146,2.45652 8.92135,4.83534 4.24562,6.96574 -3.48733,1.58893 -4.51065,1.48368 -8.01165,-0.82402 z"
       id="path1954"
       transform="scale(0.26458333)" />
    <path
       style="opacity:1;fill:#ffffff;fill-opacity:1;stroke:#000000;stroke-width:13.6108;stroke-miterlimit:4;stroke-dasharray:none;stroke-opacity:1"
       d="m 615.00432,768.03738 c -4.47301,-3.644 -8.78241,-6.57044 -28.04755,-19.04664 -2.64773,-1.71468 -7.75271,-3.79912 -11.3444,-4.6321 -9.04527,-2.09773 -10.85941,-2.8931 -15.10894,-6.62425 -7.16012,-6.28666 -8.42659,-10.46817 -9.22821,-30.46893 l -0.71049,-17.7268 3.30928,-5.40213 c 12.97996,-21.18873 30.79683,-34.49535 54.56432,-40.75167 10.73094,-2.82471 14.10252,-3.12533 14.22631,-1.26848 0.17629,2.64428 0.74929,5.57274 2.71775,13.88959 6.88227,29.07795 7.51593,61.79491 1.75103,90.40866 -2.09367,10.39181 -6.19785,25.78202 -6.86639,25.74815 -0.11657,-0.006 -2.48479,-1.86234 -5.26271,-4.1254 z"
       id="path1956"
       transform="scale(0.26458333)" />
    <path
       style="opacity:1;fill:#ffffff;fill-opacity:1;stroke:#000000;stroke-width:13.6108;stroke-miterlimit:4;stroke-dasharray:none;stroke-opacity:1"
       d="m 607.42818,753.71057 c -14.454,-9.97575 -21.92702,-14.02329 -30.20327,-16.35873 -4.36297,-1.23116 -9.35945,-3.25444 -11.1033,-4.49617 -5.30852,-3.78 -6.23149,-6.86482 -7.41781,-24.79239 l -1.08676,-16.42314 5.36895,-7.76646 c 7.60574,-11.00209 18.26259,-20.60238 29.06037,-26.17922 7.97338,-4.11809 23.20216,-9.35715 24.22524,-8.33406 0.90836,0.90836 5.34163,25.05979 6.29235,34.27926 1.45018,14.063 1.24063,34.60676 -0.4853,47.57655 -1.51303,11.3699 -4.31795,25.49364 -5.43463,27.36524 -0.37247,0.62427 -4.13577,-1.36476 -9.21584,-4.87088 z"
       id="path1958"
       transform="scale(0.26458333)" />
    <path
       style="opacity:1;fill:#ffffff;fill-opacity:1;stroke:#000000;stroke-width:13.6108;stroke-miterlimit:4;stroke-dasharray:none;stroke-opacity:1"
       d="m 605.91295,743.83143 c -7.74507,-5.23835 -19.65187,-11.27613 -26.76905,-13.57423 -8.15205,-2.63225 -10.80604,-4.20523 -11.45347,-6.78828 -0.31819,-1.26946 -1.07141,-8.41456 -1.67382,-15.878 l -1.09531,-13.56989 3.64014,-5.28533 c 8.06302,-11.70714 21.0211,-22.49243 32.61843,-27.14902 11.00204,-4.41757 9.71067,-5.54266 12.40473,10.80753 3.01409,18.29246 3.10518,48.51619 0.19646,65.18201 l -1.8072,10.35449 z"
       id="path1960"
       transform="scale(0.26458333)" />
    <path
       style="opacity:1;fill:#ffffff;fill-opacity:1;stroke:#000000;stroke-width:13.6108;stroke-miterlimit:4;stroke-dasharray:none;stroke-opacity:1"
       d="m 598.84188,731.1953 c -3.3335,-1.90474 -10.20296,-5.07801 -15.26546,-7.05173 l -9.20455,-3.58857 -0.9993,-12.324 -0.99931,-12.324 4.37902,-5.71026 c 2.40845,-3.14064 7.00019,-8.01817 10.20385,-10.83894 5.96241,-5.24982 17.11338,-11.89492 18.17652,-10.83178 1.40681,1.40681 2.35978,11.58687 2.89413,30.91651 0.57652,20.85503 -0.24631,34.45997 -2.11383,34.95056 -0.55559,0.14595 -3.73757,-1.29306 -7.07107,-3.19779 z"
       id="path1962"
       transform="scale(0.26458333)" />
    <path
       style="opacity:1;fill:#ffffff;fill-opacity:1;stroke:#000000;stroke-width:13.6108;stroke-miterlimit:4;stroke-dasharray:none;stroke-opacity:1"
       d="m 591.26574,719.49874 c -4.72247,-2.11935 -8.91688,-3.97609 -9.32092,-4.1261 -0.40405,-0.15001 -1.0319,-4.15366 -1.39523,-8.89701 l -0.6606,-8.62427 4.29604,-5.01279 c 5.43984,-6.34742 14.361,-13.79392 15.34578,-12.80914 0.80496,0.80496 1.56475,42.30074 0.78624,42.94052 -0.25576,0.21018 -4.32885,-1.35187 -9.05131,-3.47121 z"
       id="path1964"
       transform="scale(0.26458333)" />
    <path
       style="opacity:1;fill:#ffffff;fill-opacity:1;stroke:#000000;stroke-width:13.6108;stroke-miterlimit:4;stroke-dasharray:none;stroke-opacity:1"
       d="m 446.97431,916.43427 c -0.64522,-4.61738 -1.17254,-9.55065 -1.17183,-10.96283 0.002,-2.99507 7.15601,-10.4449 11.11297,-11.57169 1.38896,-0.39552 4.45719,-1.77597 6.8183,-3.06767 l 4.29293,-2.34855 6.31367,1.82662 c 3.47253,1.00464 10.26543,3.47271 15.09534,5.4846 13.74417,5.72512 16.4681,5.09212 34.14982,-7.93587 5.83364,-4.29826 11.74303,-8.26407 13.13199,-8.81293 3.11314,-1.23017 15.8623,-3.09512 17.47775,-2.55664 2.82928,0.94309 -23.20402,17.81545 -42.03023,27.24007 -18.868,9.44553 -42.9688,17.66586 -59.88612,20.42604 l -4.13147,0.67408 z"
       id="path1968"
       transform="scale(0.26458333)" />
    <path
       style="opacity:1;fill:#ffffff;fill-opacity:1;stroke:#000000;stroke-width:13.6108;stroke-miterlimit:4;stroke-dasharray:none;stroke-opacity:1"
       d="m 453.63691,911.86201 c -0.61412,-6.49394 0.77773,-8.41156 8.93265,-12.30695 l 6.83986,-3.26721 10.43117,3.71643 c 5.73715,2.04404 10.64142,4.05661 10.89838,4.47239 0.46777,0.75686 -20.21783,8.05091 -28.77276,10.14569 -2.50013,0.61219 -5.29416,1.329 -6.20896,1.59293 -1.33964,0.38649 -1.75221,-0.46056 -2.12034,-4.35328 z"
       id="path1970"
       transform="scale(0.26458333)" />
    <path
       style="opacity:1;fill:#ffffff;fill-opacity:1;stroke:#000000;stroke-width:3.4027;stroke-miterlimit:4;stroke-dasharray:none;stroke-opacity:1"
       d="m 466.50321,905.38497 c 2.56117,-1.22983 3.30073,-1.48281 3.96862,-1.35751 0.45147,0.0847 0.87273,0.23793 0.93613,0.34051 0.10989,0.1778 -7.28939,2.59536 -7.8052,2.55018 -0.13602,-0.0119 1.16919,-0.70184 2.90045,-1.53318 z"
       id="path1972"
       transform="scale(0.26458333)" />
    <path
       style="opacity:1;fill:#ffffff;fill-opacity:1;stroke:#000000;stroke-width:19.2486;stroke-miterlimit:4;stroke-dasharray:none;stroke-opacity:1"
       d="m 590.47704,710.97766 c -3.06843,-1.73501 -3.35034,-9.56263 -0.48549,-13.48055 1.89565,-2.59245 2.07111,-2.45331 2.97381,2.35848 0.52761,2.81242 0.74608,6.78348 0.48549,8.82458 -0.39262,3.07521 -0.90217,3.46887 -2.97381,2.29749 z"
       id="path1976"
       transform="scale(0.26458333)" />
    <path
       style="opacity:1;fill:#ffffff;fill-opacity:1;stroke:#000000;stroke-width:1.70135;stroke-miterlimit:4;stroke-dasharray:none;stroke-opacity:1"
       d="m 590.60476,705.25907 c -0.91139,-0.0813 -2.37406,-0.49592 -3.0778,-0.87255 -0.17388,-0.0931 -0.26833,-0.26601 -0.26833,-0.49136 0,-0.8028 2.63425,-1.77606 4.88136,-1.80348 0.70547,-0.009 1.34471,0.0227 1.42052,0.0695 0.0865,0.0535 0.13785,0.61848 0.13785,1.51687 v 1.43168 l -0.79953,0.13923 c -0.43974,0.0766 -0.90851,0.13044 -1.04172,0.11969 -0.13321,-0.0108 -0.69676,-0.0601 -1.25235,-0.10961 z"
       id="path1978"
       transform="scale(0.26458333)" />
    <path
       style="opacity:1;fill:#ffffff;fill-opacity:1;stroke:#000000;stroke-width:1.70135;stroke-miterlimit:4;stroke-dasharray:none;stroke-opacity:1"
       d="m 590.89647,704.37698 c -0.4646,-0.0566 -1.17486,-0.20109 -1.57837,-0.32117 l -0.73364,-0.21833 0.50507,-0.22438 c 0.66582,-0.2958 2.29011,-0.62399 3.08827,-0.62399 h 0.63667 v 0.69448 c 0,0.50508 -0.0474,0.69448 -0.17362,0.69448 -0.0955,0 -0.33698,0.0229 -0.53664,0.0509 -0.19966,0.028 -0.74315,0.005 -1.20774,-0.052 z"
       id="path1980"
       transform="scale(0.26458333)" />
    <path
       style="fill:none;stroke:#000000;stroke-width:4.665;stroke-linecap:butt;stroke-linejoin:miter;stroke-miterlimit:4;stroke-dasharray:none;stroke-opacity:1"
       d="m 68.590278,241.30146 -13.507238,16.68893 43.036997,6.92409 -7.276285,-15.19013"
       id="path1982" />
    <path
       style="fill:none;stroke:#000000;stroke-width:4.665;stroke-linecap:butt;stroke-linejoin:miter;stroke-miterlimit:4;stroke-dasharray:none;stroke-opacity:1"
       d="m 116.41001,249.03915 -2.79401,15.85721 39.6802,-6.7798 -12.53947,-14.10036"
       id="path1984" />
    <path
       style="opacity:1;fill:#ffffff;fill-opacity:1;stroke:#000000;stroke-width:0;stroke-miterlimit:4;stroke-dasharray:none;stroke-opacity:1"
       d="m 410.3393,150.68589 c -4.14267,-8.14806 -10.97876,-19.50786 -15.19129,-25.24399 -4.21254,-5.73613 -7.09247,-10.63736 -6.39984,-10.89163 0.69262,-0.25427 10.43877,1.78516 21.6581,4.53206 32.96079,8.07001 62.16798,18.06763 60.52924,20.71916 -0.4217,0.68234 -3.58721,1.6272 -7.03447,2.0997 -12.40538,1.70035 -27.48152,9.08363 -42.41994,20.77444 l -3.60966,2.82492 z"
       id="path2004"
       transform="matrix(0.26458333,0,0,0.26458333,38.450518,69.600316)" />
    <path
       style="opacity:1;fill:#ffffff;fill-opacity:1;stroke:#000000;stroke-width:0;stroke-miterlimit:4;stroke-dasharray:none;stroke-opacity:1"
       d="m 412.86676,155.43168 c -2.70537,-5.66234 -9.53114,-17.23377 -15.16838,-25.71428 -6.7316,-10.12684 -9.51249,-15.41911 -8.10217,-15.41911 4.47162,0 47.54771,11.46459 61.92313,16.48067 23.51348,8.20468 23.96656,8.74255 9.7988,11.63251 -10.75123,2.19306 -27.02372,10.1406 -36.07209,17.61774 -3.79222,3.13371 -7.02219,5.69765 -7.1777,5.69765 -0.15551,0 -2.49623,-4.63283 -5.20159,-10.29518 z"
       id="path2006"
       transform="matrix(0.26458333,0,0,0.26458333,38.450518,69.600316)" />
    <path
       style="opacity:1;fill:#ffffff;fill-opacity:1;stroke:#000000;stroke-width:0;stroke-miterlimit:4;stroke-dasharray:none;stroke-opacity:1"
       d="m 86.519342,180.91181 c -4.788317,-2.52529 -9.032615,-3.13168 -26.192183,-3.74215 l -20.477897,-0.72851 11.376656,-7.49665 c 9.594298,-6.32217 59.109332,-31.73552 61.911942,-31.776 0.49732,-0.007 -2.15263,5.954 -5.88879,13.24708 -3.73617,7.29308 -8.287461,17.90022 -10.113995,23.57143 -1.826535,5.6712 -3.676579,10.22739 -4.111209,10.12485 -0.434631,-0.10253 -3.361667,-1.54256 -6.504524,-3.20005 z"
       id="path2008"
       transform="matrix(0.26458333,0,0,0.26458333,38.450518,69.600316)" />
    <path
       style="opacity:1;fill:#ffffff;fill-opacity:1;stroke:#000000;stroke-width:0;stroke-miterlimit:4;stroke-dasharray:none;stroke-opacity:1"
       d="m 163.71788,49.717135 c -4.55968,-15.60607 -7.97566,-28.689341 -7.59107,-29.073935 1.23389,-1.233885 17.3371,11.466568 23.7735,18.749939 6.87919,7.784427 19.41037,24.869489 18.57707,25.328063 -0.29121,0.160257 -6.3659,3.234203 -13.49932,6.830991 l -12.96986,6.539616 z"
       id="path2010"
       transform="matrix(0.26458333,0,0,0.26458333,38.450518,69.600316)" />
    <path
       style="opacity:1;fill:#ffffff;fill-opacity:1;stroke:#000000;stroke-width:0;stroke-miterlimit:4;stroke-dasharray:none;stroke-opacity:1"
       d="m 331.74631,70.928415 -9.05875,-4.659819 11.47572,-10.795534 c 10.61782,-9.988486 24.34352,-20.377783 25.45434,-19.266971 0.71352,0.713523 -16.94351,39.531504 -17.94518,39.451457 -0.47706,-0.03812 -4.94382,-2.166233 -9.92613,-4.729133 z"
       id="path2012"
       transform="matrix(0.26458333,0,0,0.26458333,38.450518,69.600316)" />
    <path
       style="opacity:1;fill:#ffffff;fill-opacity:1;stroke:#000000;stroke-width:0;stroke-miterlimit:4;stroke-dasharray:none;stroke-opacity:1"
       d="m 296.31695,723.22686 c 0.38744,-1.375 1.47785,-7.32142 2.42314,-13.21428 2.64906,-16.51406 2.0576,-15.83388 16.27089,-18.71144 19.0733,-3.8615 36.12861,-9.08743 50.95571,-15.61339 7.37539,-3.24619 14.20773,-6.0118 15.18298,-6.14581 2.31742,-0.31843 33.64805,34.94419 32.19562,36.23618 -1.11065,0.98797 -110.70187,19.94874 -115.30157,19.94874 -1.6314,0 -2.19946,-0.82243 -1.72677,-2.5 z"
       id="path2014"
       transform="matrix(0.26458333,0,0,0.26458333,38.450518,69.600316)" />
    <path
       style="opacity:1;fill:#ffffff;fill-opacity:1;stroke:#000000;stroke-width:0;stroke-miterlimit:4;stroke-dasharray:none;stroke-opacity:1"
       d="m 142.94791,715.44153 c -33.39285,-5.48138 -60.940963,-10.18981 -61.218016,-10.46319 -0.605837,-0.59779 36.778946,-46.92777 38.351836,-47.52843 0.60462,-0.23089 4.55043,1.63684 8.76846,4.15052 11.15148,6.64557 32.79068,16.21677 48.38344,21.4004 l 13.57143,4.51167 8.57142,17.79009 c 10.5301,21.85533 10.0535,20.45655 6.90477,20.26467 -1.44048,-0.0878 -29.94048,-4.64436 -63.33334,-10.12573 z"
       id="path2016"
       transform="matrix(0.26458333,0,0,0.26458333,38.450518,69.600316)" />
  </g>
</svg>
