<?xml version="1.0" encoding="UTF-8" standalone="no"?>
<svg
   xmlns:dc="http://purl.org/dc/elements/1.1/"
   xmlns:cc="http://creativecommons.org/ns#"
   xmlns:rdf="http://www.w3.org/1999/02/22-rdf-syntax-ns#"
   xmlns:svg="http://www.w3.org/2000/svg"
   xmlns="http://www.w3.org/2000/svg"
   xmlns:sodipodi="http://sodipodi.sourceforge.net/DTD/sodipodi-0.dtd"
   xmlns:inkscape="http://www.inkscape.org/namespaces/inkscape"
   width="160.31842mm"
   height="118.02811mm"
   viewBox="0 0 160.31842 118.02811"
   version="1.1"
   id="svg18"
   inkscape:version="1.0.1 (1.0.1+r75)"
   sodipodi:docname="trumpet.svg">
  <defs
     id="defs12" />
  <sodipodi:namedview
     id="base"
     pagecolor="#ffffff"
     bordercolor="#666666"
     borderopacity="1.0"
     inkscape:pageopacity="0.0"
     inkscape:pageshadow="2"
     inkscape:zoom="0.7"
     inkscape:cx="657.94092"
     inkscape:cy="354.60378"
     inkscape:document-units="mm"
     inkscape:current-layer="layer1"
     inkscape:document-rotation="0"
     showgrid="false"
     fit-margin-top="0"
     fit-margin-left="0"
     fit-margin-right="0"
     fit-margin-bottom="0"
     inkscape:window-width="1680"
     inkscape:window-height="1022"
     inkscape:window-x="0"
     inkscape:window-y="0"
     inkscape:window-maximized="1" />
  <metadata
     id="metadata15">
    <rdf:RDF>
      <cc:Work
         rdf:about="">
        <dc:format>image/svg+xml</dc:format>
        <dc:type
           rdf:resource="http://purl.org/dc/dcmitype/StillImage" />
        <dc:title></dc:title>
      </cc:Work>
    </rdf:RDF>
  </metadata>
  <g
     inkscape:label="Layer 1"
     inkscape:groupmode="layer"
     id="layer1"
     transform="translate(-17.867723,-83.144059)">
    <path
       id="path60"
       sodipodi:type="arc"
       sodipodi:cx="16.148996"
       sodipodi:cy="154.53421"
       sodipodi:rx="17.226568"
       sodipodi:ry="50.44603"
       sodipodi:start="0"
       sodipodi:end="6.2808117"
       sodipodi:arc-type="slice"
       d="M 33.375565,154.53421 A 17.226568,50.44603 0 0 1 16.159219,204.98023 17.226568,50.44603 0 0 1 -1.0775597,154.59408 17.226568,50.44603 0 0 1 16.11833,104.08826 17.226568,50.44603 0 0 1 33.375516,154.41447 l -17.22652,0.11974 z"
       style="stroke-width:0.272302;fill:#2b0000;fill-opacity:1"
       transform="rotate(-7.4960274)" />
    <path
       style="opacity:0.99;fill:none;stroke:#000000;stroke-width:3.565;stroke-linecap:butt;stroke-linejoin:miter;stroke-miterlimit:4;stroke-dasharray:none;stroke-opacity:1"
       d="m 33.250065,104.29353 30.74911,12.30554 26.41541,4.47619 68.982975,-28.639139 2.13604,-5.852835 2.68669,-1.188373 11.52267,18.146477 -5.42454,3.58344 -6.81417,-1.77444 -73.323035,33.48249 -44.404424,57.37101"
       id="path62"
       sodipodi:nodetypes="ccccccccccc" />
    <path
       style="fill:none;stroke:#000000;stroke-width:1.965;stroke-linecap:butt;stroke-linejoin:miter;stroke-miterlimit:4;stroke-dasharray:none;stroke-opacity:1"
       d="m 163.50425,105.35039 1.99069,21.37757 -54.96982,24.84724 -20.343905,-12.74232"
       id="path887" />
    <path
       style="fill:none;stroke:#000000;stroke-width:0.264583px;stroke-linecap:butt;stroke-linejoin:miter;stroke-opacity:1"
       d="M 155.06836,136.93382 Z"
       id="path889" />
    <path
       style="fill:none;stroke:#000000;stroke-width:4.065;stroke-linecap:butt;stroke-linejoin:miter;stroke-miterlimit:4;stroke-dasharray:none;stroke-opacity:1"
       d="m 131.71582,119.58556 14.37259,24.31265"
       id="path891" />
    <path
       style="fill:none;stroke:#000000;stroke-width:4.065;stroke-linecap:butt;stroke-linejoin:miter;stroke-miterlimit:4;stroke-dasharray:none;stroke-opacity:1"
       d="m 147.83388,111.0198 14.00205,24.68357"
       id="path893" />
    <path
       style="fill:none;stroke:#000000;stroke-width:4.065;stroke-linecap:butt;stroke-linejoin:miter;stroke-miterlimit:4;stroke-dasharray:none;stroke-opacity:1"
       d="m 116.88402,127.98888 10.88673,21.29192"
       id="path895" />
    <path
       style="fill:none;stroke:#000000;stroke-width:3.965;stroke-linecap:butt;stroke-linejoin:miter;stroke-miterlimit:4;stroke-dasharray:none;stroke-opacity:1"
       d="m 142.56348,98.580719 -2.67105,-5.505828"
       id="path899" />
    <path
       style="fill:none;stroke:#000000;stroke-width:3.965;stroke-linecap:butt;stroke-linejoin:miter;stroke-miterlimit:4;stroke-dasharray:none;stroke-opacity:1"
       d="m 126.02606,105.99489 -2.32352,-5.75782"
       id="path901" />
    <path
       style="fill:none;stroke:#000000;stroke-width:3.965;stroke-linecap:butt;stroke-linejoin:miter;stroke-miterlimit:4;stroke-dasharray:none;stroke-opacity:1"
       d="m 109.58953,113.35264 -3.10957,-6.31825"
       id="path903" />
    <path
       style="fill:none;stroke:#000000;stroke-width:0.264583px;stroke-linecap:butt;stroke-linejoin:miter;stroke-opacity:1"
       d="m 139.89243,93.074891 v 0"
       id="path905" />
    <path
       style="opacity:0.99;fill:#2bf900;fill-opacity:1;stroke:#000000;stroke-width:21.4083;stroke-miterlimit:4;stroke-dasharray:none;stroke-opacity:1"
       d="m 269.94558,604.09167 66.07311,-85.38935 138.84899,-63.39876 c 76.36693,-34.86932 140.20775,-63.66235 141.86847,-63.98451 1.66072,-0.32216 7.95644,0.79955 13.99047,2.49271 l 10.97098,3.07846 6.13608,-3.88198 6.13608,-3.88197 -17.9837,-28.34906 c -9.89103,-15.59198 -18.35457,-28.35078 -18.80787,-28.35289 -0.45329,-0.002 -2.58312,5.04903 -4.73296,11.22477 l -3.9088,11.22861 -133.12418,55.22365 -133.12417,55.22365 -51.42857,-8.7611 -51.42857,-8.76109 -40.6223,-16.23554 c -22.34226,-8.92954 -40.79645,-16.06138 -41.00932,-15.84852 -0.21285,0.21285 2.72956,6.46854 6.53869,13.90151 16.83831,32.85758 30.79157,82.62048 38.03764,135.65736 3.09712,22.66898 4.34192,84.83778 2.12856,106.3058 -0.95252,9.23864 -1.48432,17.04505 -1.18179,17.34758 0.30252,0.30253 30.28295,-37.87517 66.62316,-84.83933 z"
       id="path907"
       transform="scale(0.26458333)" />
    <path
       style="fill:none;stroke:#000000;stroke-width:3.865;stroke-linecap:butt;stroke-linejoin:miter;stroke-opacity:1;stroke-miterlimit:4;stroke-dasharray:none"
       d="m 53.234804,148.74075 c -4.014433,1.81626 -8.046315,1.58128 -12.14976,2.40197 -0.363009,0.0726 -1.26451,-0.2292 -1.511905,0 -0.160342,0.14856 -0.494058,0.59508 -0.275477,0.59508 1.063193,0 -2.071361,-0.5007 -3.126538,-0.63101"
       id="path927" />
  </g>
</svg>
