<?xml version="1.0" encoding="UTF-8" standalone="no"?>
<svg
   xmlns:dc="http://purl.org/dc/elements/1.1/"
   xmlns:cc="http://creativecommons.org/ns#"
   xmlns:rdf="http://www.w3.org/1999/02/22-rdf-syntax-ns#"
   xmlns:svg="http://www.w3.org/2000/svg"
   xmlns="http://www.w3.org/2000/svg"
   xmlns:sodipodi="http://sodipodi.sourceforge.net/DTD/sodipodi-0.dtd"
   xmlns:inkscape="http://www.inkscape.org/namespaces/inkscape"
   width="239.1575mm"
   height="132.81767mm"
   viewBox="0 0 239.1575 132.81767"
   version="1.1"
   id="svg2388"
   inkscape:version="1.0.1 (1.0.1+r75)"
   sodipodi:docname="water.svg">
  <defs
     id="defs2382" />
  <sodipodi:namedview
     id="base"
     pagecolor="#ffffff"
     bordercolor="#666666"
     borderopacity="1.0"
     inkscape:pageopacity="0.0"
     inkscape:pageshadow="2"
     inkscape:zoom="0.7"
     inkscape:cx="397.08981"
     inkscape:cy="-85.569771"
     inkscape:document-units="mm"
     inkscape:current-layer="layer1"
     inkscape:document-rotation="0"
     showgrid="false"
     fit-margin-top="0"
     fit-margin-left="0"
     fit-margin-right="0"
     fit-margin-bottom="0"
     inkscape:window-width="1680"
     inkscape:window-height="1022"
     inkscape:window-x="0"
     inkscape:window-y="0"
     inkscape:window-maximized="1" />
  <metadata
     id="metadata2385">
    <rdf:RDF>
      <cc:Work
         rdf:about="">
        <dc:format>image/svg+xml</dc:format>
        <dc:type
           rdf:resource="http://purl.org/dc/dcmitype/StillImage" />
        <dc:title></dc:title>
      </cc:Work>
    </rdf:RDF>
  </metadata>
  <g
     inkscape:label="Layer 1"
     inkscape:groupmode="layer"
     id="layer1"
     transform="translate(-0.5186115,-144.90868)">
    <path
       style="fill:#00bbff;stroke:#000000;stroke-width:0.264583px;stroke-linecap:butt;stroke-linejoin:miter;stroke-opacity:1;fill-opacity:1"
       d="m 0.53746977,171.19593 23.87421323,-2.34621 19.3818,-4.20719 12.751929,-11.10414 11.586723,14.8537 18.040496,7.27769 29.260589,-2.87742 20.38969,-9.60526 7.61319,12.05738 9.34503,3.15664 27.33255,0.26888 16.18748,-5.22585 10.78994,-4.69717 4.2916,10.7061 7.65307,4.13451 21.8071,4.87692 -0.97471,89.99942 -238.9991177,-0.13441 z"
       id="path2431" />
    <path
       style="fill:none;stroke:#000bff;stroke-width:4.065;stroke-linecap:butt;stroke-linejoin:miter;stroke-miterlimit:4;stroke-dasharray:none;stroke-opacity:1"
       d="m 40.339269,208.73878 c 8.229358,-0.53775 16.095147,-2.32848 21.487497,-12.64349 0.763991,8.59321 4.704672,11.11533 11.366509,15.84694 11.124759,0.23469 13.324047,-4.68817 19.048372,-8.93808 0.02232,6.21707 1.828676,7.48219 6.506038,10.89383 14.816585,1.49955 15.293175,-3.93075 20.836075,-6.91274 -0.74739,8.5484 5.58934,11.72151 12.94889,14.11851"
       id="path2394"
       sodipodi:nodetypes="ccccccc" />
    <path
       style="fill:none;stroke:#000bff;stroke-width:4.06501;stroke-linecap:butt;stroke-linejoin:miter;stroke-miterlimit:4;stroke-dasharray:none;stroke-opacity:1"
       d="m 74.607235,243.86452 c 8.229358,-0.53775 16.095147,-2.32848 21.487497,-12.64349 0.763991,8.59321 4.704668,11.11533 11.366508,15.84694 11.12476,0.23469 13.32405,-4.68817 19.04837,-8.93808 0.0223,6.21707 1.82868,7.48219 6.50604,10.89383 14.81659,1.49955 15.29318,-3.93075 20.83608,-6.91274 -0.74739,8.5484 5.58934,11.72151 12.94889,14.11851"
       id="path2394-9"
       sodipodi:nodetypes="ccccccc" />
    <path
       style="fill:none;stroke:#000bff;stroke-width:4.06501;stroke-linecap:butt;stroke-linejoin:miter;stroke-miterlimit:4;stroke-dasharray:none;stroke-opacity:1"
       d="m 146.85328,211.83578 c 8.22936,-0.53775 16.09515,-2.32848 21.4875,-12.64349 0.76399,8.59321 4.70467,11.11533 11.36651,15.84694 11.12476,0.23469 13.32404,-4.68817 19.04837,-8.93808 0.0223,6.21707 1.82868,7.48219 6.50604,10.89383 14.81658,1.49955 15.29317,-3.93075 20.83607,-6.91274 -0.74739,8.5484 5.58934,11.72151 12.9489,14.11851"
       id="path2394-7"
       sodipodi:nodetypes="ccccccc" />
    <path
       style="fill:none;stroke:#000bff;stroke-width:7.75577;stroke-linecap:butt;stroke-linejoin:miter;stroke-miterlimit:4;stroke-dasharray:none;stroke-opacity:1"
       d="M 0.53746977,171.19593 C 21.987591,170.44492 42.490058,167.94404 56.545414,153.53839 c 1.99137,12.00103 12.262898,15.52335 29.627218,22.13139 28.997088,0.32775 34.729608,-6.54737 49.650278,-12.48268 0.0583,8.6826 4.76651,10.44943 16.95822,15.21402 38.61997,2.09424 39.86222,-5.48957 54.30997,-9.65414 -1.94807,11.93847 14.56883,16.36994 33.75177,19.71753"
       id="path2394-3"
       sodipodi:nodetypes="ccccccc" />
    <path
       style="fill:none;stroke:#000bff;stroke-width:4.06501;stroke-linecap:butt;stroke-linejoin:miter;stroke-miterlimit:4;stroke-dasharray:none;stroke-opacity:1"
       d="m 14.394456,263.42879 c 8.229358,-0.53775 16.095147,-2.32848 21.487497,-12.64349 0.763991,8.59321 4.704672,11.11533 11.366509,15.84694 11.124758,0.23469 13.324046,-4.68817 19.048373,-8.93808 0.02233,6.21707 1.828676,7.48219 6.506038,10.89383 14.816585,1.49955 15.293173,-3.93075 20.836075,-6.91274 -0.74739,8.5484 5.589339,11.72152 12.948892,14.11852"
       id="path2394-6"
       sodipodi:nodetypes="ccccccc" />
  </g>
</svg>
